# xmcd
# 
# Track frame offsets:
#     150
#     20682
#     38340
#     62002
#     81300
#     94875
#     114435
#     128545
#     141447
#     157540
#     171757
#     188280
#     196395
#     207217
#     218612
# 
# Disc length: 3090
# 
# Revision: 2
# Processed by: cddbd v1.5.2PL0 Copyright (c) Steve Scherf et al.
# Submitted via: BonkEnc v1.0.15
# 
DISCID=bb0c100f
DTITLE=Various Artist - Rhythm and Soul 
DYEAR=2000
DGENRE=Rhythmic Soul
TTITLE0=Mark Morrison - Return Of The Mack
TTITLE1=Bobby Brown - Every Little Step
TTITLE2=Alison Limerick - Make It On My Own
TTITLE3=Luther Vandross - Power Of Love
TTITLE4=Kool and The Gang - Funky Stuff
TTITLE5=Ohio Players - Fire
TTITLE6=KC and The Sunshine Band - Get Down Tonight
TTITLE7=Sly and The Family Stone - Dance To The Music
TTITLE8=Curtis Mayfield - Move On Up
TTITLE9=Carl Douglas - Kung Fu Fighting
TTITLE10=MFSB - T.S.O.P
TTITLE11=The Coasters - Yakety Yak
TTITLE12=Bruce Channel - Hey Baby
TTITLE13=Solomon Burke - Cry To Me
TTITLE14=The Platters - I'm Sorry
EXTD=
EXTT0=
EXTT1=
EXTT2=
EXTT3=
EXTT4=
EXTT5=
EXTT6=
EXTT7=
EXTT8=
EXTT9=
EXTT10=
EXTT11=
EXTT12=
EXTT13=
EXTT14=
PLAYORDER=
